<svg width="564" height="143" viewBox="0 0 564 143" fill="none" xmlns="http://www.w3.org/2000/svg">
<g filter="url(#filter0_bd_1_462)">
<rect x="59" y="30" width="468" height="197" rx="21" fill="#C8EFC4"/>
</g>
<path d="M233.811 59.694C233.811 58.096 235.205 57.042 237.517 57.042C239.999 57.042 241.597 58.232 242.141 60.816H247.003C246.255 55.614 242.311 53.37 237.653 53.37C232.179 53.37 229.153 56.43 229.153 60.102C229.153 69.316 242.957 64.896 242.957 70.778C242.957 72.648 241.495 73.838 238.639 73.838C235.851 73.838 234.083 72.478 233.505 70.03H228.711C229.595 75.062 233.335 77.51 238.605 77.51C243.841 77.51 247.649 74.858 247.649 70.2C247.649 60.748 233.811 65.236 233.811 59.694ZM251.292 71.322C251.292 75.402 253.06 77.51 256.766 77.51C257.956 77.51 258.942 77.306 259.418 77.068V73.872H258.602C256.188 73.872 255.644 72.852 255.644 70.948V62.142H259.486V58.776H255.644V54.594H251.292V58.776H248.946V62.142H251.292V71.322ZM266.252 64.76C266.524 63.026 267.646 61.87 269.72 61.87C272.134 61.87 273.256 63.128 273.256 65.474V65.916C270.196 65.95 267.85 66.154 265.436 66.97C262.648 67.888 261.254 69.758 261.254 72.24C261.254 75.742 263.804 77.51 267.374 77.51C269.55 77.51 271.794 76.626 273.29 74.518C273.324 75.504 273.426 76.388 273.664 77H278.186C277.846 76.048 277.642 74.79 277.642 72.546V65.474C277.642 61.258 275.058 58.266 269.992 58.266C265.402 58.266 262.444 60.714 261.866 64.76H266.252ZM265.64 72.002C265.64 70.166 267.068 68.704 273.256 68.602V69.384C273.256 72.104 271.182 74.28 268.496 74.28C266.728 74.28 265.64 73.396 265.64 72.002ZM281.792 77H286.144V67.31C286.144 64.284 287.606 62.312 290.904 62.312C291.686 62.312 292.332 62.38 292.91 62.55V58.776C292.57 58.47 291.89 58.266 291.142 58.266C289.17 58.266 287.334 59.252 286.144 61.428V58.776H281.792V77ZM295.784 71.322C295.784 75.402 297.552 77.51 301.258 77.51C302.448 77.51 303.434 77.306 303.91 77.068V73.872H303.094C300.68 73.872 300.136 72.852 300.136 70.948V62.142H303.978V58.776H300.136V54.594H295.784V58.776H293.438V62.142H295.784V71.322ZM317.421 77V75.062C318.543 76.66 320.209 77.51 322.215 77.51C326.873 77.51 329.865 74.042 329.865 67.854C329.865 61.904 326.941 58.266 322.215 58.266C320.209 58.266 318.577 59.184 317.421 60.816V52.52H313.069V77H317.421ZM321.433 61.87C323.983 61.87 325.411 64.012 325.411 67.854C325.411 71.764 324.017 73.906 321.433 73.906C318.849 73.906 317.421 71.73 317.421 67.854C317.421 63.978 318.815 61.87 321.433 61.87ZM344.347 69.35C344.347 71.798 342.885 73.906 340.539 73.906C338.397 73.906 337.377 72.546 337.377 70.064V58.776H333.025V70.948C333.025 75.334 335.439 77.51 339.043 77.51C341.287 77.51 343.157 76.558 344.347 74.552V77H348.699V58.776H344.347V69.35ZM352.714 56.736H357.066V52.52H352.714V56.736ZM352.714 77H357.066V58.776H352.714V77ZM361.048 77H365.4V52.52H361.048V77ZM376.216 77.51C378.222 77.51 379.854 76.592 381.01 74.926V77H385.362V52.52H381.01V60.748C379.888 59.116 378.222 58.266 376.216 58.266C371.524 58.266 368.532 61.734 368.532 67.922C368.532 73.872 371.456 77.51 376.216 77.51ZM376.998 73.906C374.448 73.906 373.02 71.764 373.02 67.922C373.02 64.012 374.414 61.87 376.998 61.87C379.548 61.87 381.01 64.046 381.01 67.922C381.01 71.798 379.616 73.906 376.998 73.906ZM389.337 56.736H393.689V52.52H389.337V56.736ZM389.337 77H393.689V58.776H389.337V77ZM397.671 77H402.023V66.426C402.023 63.978 403.519 61.87 405.933 61.87C408.143 61.87 409.197 63.264 409.197 65.746V77H413.549V64.862C413.549 60.442 411.067 58.266 407.429 58.266C405.117 58.266 403.213 59.252 402.023 61.224V58.776H397.671V77ZM424.19 77.068C426.298 77.068 427.998 76.218 429.188 74.586V77.646C429.188 80.536 427.726 81.59 425.55 81.59C423.442 81.59 421.878 80.57 421.606 78.632H417.22C417.866 82.95 421.13 85.024 425.618 85.024C430.14 85.024 433.54 82.508 433.54 77.578V58.776H429.188V60.612C428.066 59.082 426.366 58.266 424.19 58.266C419.634 58.266 416.71 61.632 416.71 67.684C416.71 73.498 419.566 77.068 424.19 77.068ZM425.176 73.464C422.592 73.464 421.198 71.39 421.198 67.684C421.198 63.91 422.592 61.87 425.176 61.87C427.726 61.87 429.188 63.978 429.188 67.684C429.188 71.424 427.794 73.464 425.176 73.464ZM231.499 122.99C234.831 122.99 236.463 121.528 238.333 116.802L246.357 96.776H241.903L238.027 107.35L237.279 110.002L236.531 107.35L232.485 96.776H227.827L235.001 114.252L234.559 115.374C233.165 118.842 232.247 119.25 230.275 119.25H229.255V122.582C229.697 122.752 230.615 122.99 231.499 122.99ZM255.946 115.51C261.216 115.51 264.65 112.042 264.65 105.922C264.65 99.938 261.318 96.266 255.946 96.266C250.642 96.266 247.208 99.734 247.208 105.922C247.208 111.872 250.54 115.51 255.946 115.51ZM255.946 111.906C253.192 111.906 251.696 109.764 251.696 105.922C251.696 102.012 253.158 99.87 255.946 99.87C258.666 99.87 260.162 102.046 260.162 105.922C260.162 109.798 258.7 111.906 255.946 111.906ZM279.136 107.35C279.136 109.798 277.674 111.906 275.328 111.906C273.186 111.906 272.166 110.546 272.166 108.064V96.776H267.814V108.948C267.814 113.334 270.228 115.51 273.832 115.51C276.076 115.51 277.946 114.558 279.136 112.552V115H283.488V96.776H279.136V107.35ZM287.503 115H291.855V105.31C291.855 102.284 293.317 100.312 296.615 100.312C297.397 100.312 298.043 100.38 298.621 100.55V96.776C298.281 96.47 297.601 96.266 296.853 96.266C294.881 96.266 293.045 97.252 291.855 99.428V96.776H287.503V115ZM308.036 109.322C308.036 113.402 309.804 115.51 313.51 115.51C314.7 115.51 315.686 115.306 316.162 115.068V111.872H315.346C312.932 111.872 312.388 110.852 312.388 108.948V100.142H316.23V96.776H312.388V92.594H308.036V96.776H305.69V100.142H308.036V109.322ZM335.406 109.05H330.816C330.238 110.988 328.844 111.94 326.804 111.94C324.152 111.94 322.622 110.104 322.418 106.772H335.27V105.752C335.27 99.87 331.972 96.266 326.634 96.266C321.33 96.266 317.93 99.734 317.93 105.922C317.93 111.872 321.296 115.51 326.804 115.51C331.156 115.51 334.42 113.266 335.406 109.05ZM326.634 99.836C328.912 99.836 330.306 101.332 330.714 104.052H322.52C322.928 101.298 324.322 99.836 326.634 99.836ZM342.752 102.76C343.024 101.026 344.146 99.87 346.22 99.87C348.634 99.87 349.756 101.128 349.756 103.474V103.916C346.696 103.95 344.35 104.154 341.936 104.97C339.148 105.888 337.754 107.758 337.754 110.24C337.754 113.742 340.304 115.51 343.874 115.51C346.05 115.51 348.294 114.626 349.79 112.518C349.824 113.504 349.926 114.388 350.164 115H354.686C354.346 114.048 354.142 112.79 354.142 110.546V103.474C354.142 99.258 351.558 96.266 346.492 96.266C341.902 96.266 338.944 98.714 338.366 102.76H342.752ZM342.14 110.002C342.14 108.166 343.568 106.704 349.756 106.602V107.384C349.756 110.104 347.682 112.28 344.996 112.28C343.228 112.28 342.14 111.396 342.14 110.002ZM358.292 115H362.644V104.426C362.644 101.978 364.004 99.87 366.18 99.87C368.118 99.87 369.036 101.264 369.036 103.746V115H373.388V104.426C373.388 101.978 374.748 99.87 376.924 99.87C378.862 99.87 379.78 101.264 379.78 103.746V115H384.132V102.862C384.132 98.442 381.752 96.266 378.25 96.266C375.904 96.266 373.966 97.286 372.742 99.36C371.824 97.286 370.022 96.266 367.71 96.266C365.568 96.266 363.8 97.218 362.644 99.122V96.776H358.292V115ZM387.904 115H392.698V110.206H387.904V115Z" fill="#20A67D"/>
<path d="M74 117H107.931V108.133H97.0734V58.8191H86.8487V59.6335C86.8487 62.7099 85.1295 64.1576 79.0671 64.1576H74V72.8441H84.8581V108.133H74V117Z" fill="#20A67D"/>
<path d="M134.187 118.357C148.755 118.357 157.442 107.318 157.442 87.9549C157.442 68.7723 148.846 57.4618 134.187 57.4618C119.619 57.4618 110.933 68.5009 110.933 87.9549C110.933 107.047 119.529 118.357 134.187 118.357ZM134.187 108.585C126.858 108.585 122.786 101.075 122.786 87.9549C122.786 74.5633 126.768 67.2341 134.187 67.2341C141.426 67.2341 145.498 74.6538 145.498 87.9549C145.498 101.256 141.517 108.585 134.187 108.585Z" fill="#20A67D"/>
<path d="M197.542 117H211.657L190.122 85.0594L210.119 55.4712H197.361L186.684 70.763L183.879 75.5586L181.074 70.763L170.215 55.4712H156.1L176.187 85.2404L154.562 117H167.41L179.897 99.0844L182.521 94.7412L185.055 99.0844L197.542 117Z" fill="#20A67D"/>
<defs>
<filter id="filter0_bd_1_462" x="0.485985" y="0.742992" width="585.028" height="314.028" filterUnits="userSpaceOnUse" color-interpolation-filters="sRGB">
<feFlood flood-opacity="0" result="BackgroundImageFix"/>
<feGaussianBlur in="BackgroundImageFix" stdDeviation="3.65713"/>
<feComposite in2="SourceAlpha" operator="in" result="effect1_backgroundBlur_1_462"/>
<feColorMatrix in="SourceAlpha" type="matrix" values="0 0 0 0 0 0 0 0 0 0 0 0 0 0 0 0 0 0 127 0" result="hardAlpha"/>
<feOffset dy="29.257"/>
<feGaussianBlur stdDeviation="29.257"/>
<feComposite in2="hardAlpha" operator="out"/>
<feColorMatrix type="matrix" values="0 0 0 0 0 0 0 0 0 0 0 0 0 0 0 0 0 0 0.05 0"/>
<feBlend mode="normal" in2="effect1_backgroundBlur_1_462" result="effect2_dropShadow_1_462"/>
<feBlend mode="normal" in="SourceGraphic" in2="effect2_dropShadow_1_462" result="shape"/>
</filter>
</defs>
</svg>
