<svg width="62" height="61" viewBox="0 0 62 61" fill="none" xmlns="http://www.w3.org/2000/svg">
<path d="M31.5142 0.180195C27.5007 0.175781 23.5257 0.9486 19.8164 2.45447C16.1071 3.96035 12.7363 6.16975 9.89676 8.95634C7.05719 11.7429 4.80454 15.0521 3.26759 18.6945C1.73063 22.337 0.939528 26.2414 0.939514 30.1844C0.9395 34.1274 1.73057 38.0318 3.2675 41.6743C4.80443 45.3168 7.05706 48.6259 9.89662 51.4125C12.7362 54.1991 16.1069 56.4086 19.8162 57.9145C23.5255 59.4204 27.5005 60.1932 31.514 60.1888H31.5142C39.6048 60.1748 47.3591 57.0074 53.0749 51.3821C58.7907 45.7567 62.001 38.133 62.001 30.1845C62.001 22.236 58.7907 14.6123 53.0749 8.98696C47.3591 3.36158 39.6048 0.19422 31.5142 0.180195Z" fill="#FFBE2E"/>
<path d="M30.052 39.1332C29.5877 39.1341 29.1357 38.9728 28.7642 38.6739L28.7411 38.6554L23.8905 34.6738C23.4374 34.3003 23.1409 33.7491 23.0664 33.1412C22.9918 32.5333 23.1452 31.9185 23.4928 31.432C23.8404 30.9454 24.3539 30.6268 24.9203 30.5463C25.4867 30.4657 26.0598 30.6297 26.5135 31.0023L29.6554 33.5877L37.0797 23.1941C37.2519 22.9531 37.4666 22.7509 37.7116 22.599C37.9566 22.447 38.227 22.3484 38.5076 22.3086C38.7881 22.2688 39.0732 22.2888 39.3465 22.3672C39.6199 22.4457 39.8761 22.5811 40.1007 22.7659L40.1007 22.7659L40.1013 22.7664L40.0553 22.835L40.1026 22.7664C40.5556 23.14 40.852 23.6912 40.9267 24.2991C41.0014 24.907 40.8484 25.5218 40.5011 26.0087L31.7684 38.2284C31.5664 38.5099 31.3067 38.7378 31.0093 38.8942C30.712 39.0506 30.3851 39.1315 30.0539 39.1304L30.052 39.1332Z" fill="#202229"/>
<path d="M30.052 39.1332C29.5877 39.1341 29.1357 38.9728 28.7642 38.6739L28.7411 38.6554L23.8905 34.6738C23.4374 34.3003 23.1409 33.7491 23.0664 33.1412C22.9918 32.5333 23.1452 31.9185 23.4928 31.432C23.8404 30.9454 24.3539 30.6268 24.9203 30.5463C25.4867 30.4657 26.0598 30.6297 26.5135 31.0023L29.6554 33.5877L37.0797 23.1941C37.2519 22.9531 37.4666 22.7509 37.7116 22.599C37.9566 22.447 38.227 22.3484 38.5076 22.3086C38.7881 22.2688 39.0732 22.2888 39.3465 22.3672C39.6199 22.4457 39.8761 22.5811 40.1007 22.7659L40.1007 22.7659L40.1013 22.7664L40.0553 22.835L40.1026 22.7664C40.5556 23.14 40.852 23.6912 40.9267 24.2991C41.0014 24.907 40.8484 25.5218 40.5011 26.0087L31.7684 38.2284C31.5664 38.5099 31.3067 38.7378 31.0093 38.8942C30.712 39.0506 30.3851 39.1315 30.0539 39.1304L30.052 39.1332Z" stroke="black"/>
</svg>
